# xmcd CD database file
#
# Track frame offsets:
#	150
#	32130
#	49477
#	69062
#	90312
#	115112
#	137845
#	157132
#	181212
#	241470
#	267707
#	286027
#
# Disc length: 4084 seconds
#
# Revision: 0
# Processed by: cddbd v1.5.2PL0 Copyright (c) Steve Scherf et al.
# Submitted via: CDex 1.51
#
DISCID=a80ff20c
DTITLE=Silvan Lassauer - The Hollow Man 2
DYEAR=1998
DGENRE=New Age
TTITLE0=part 2.1
TTITLE1=part 2.2
TTITLE2=part 2.3
TTITLE3=part 2.4
TTITLE4=part 2.5
TTITLE5=part 2.6
TTITLE6=part 2.7
TTITLE7=part 2.8
TTITLE8=part 2.9
TTITLE9=odyssey 1
TTITLE10=odyssey 2
TTITLE11=odyssey 3
EXTD=YEAR: 1998
EXTT0=
EXTT1=
EXTT2=
EXTT3=
EXTT4=
EXTT5=
EXTT6=
EXTT7=
EXTT8=
EXTT9=
EXTT10=
EXTT11=
PLAYORDER=
